<svg width="684" height="687" viewBox="0 0 684 687" fill="none" xmlns="http://www.w3.org/2000/svg">
<path d="M48.5 276L62.5 262.5L63.5 261.5C62.1667 263 59.3 269.3 58.5 282.5C57.7 295.7 66.8333 296.333 71.5 295C74 290.5 78 290.5 78.5 291C78.9 291.4 95.6667 292.5 104 293C100 285 114.5 288 114.5 287C114.5 286 118.5 282.5 119 281.5C119.4 280.7 123.833 281.167 126 281.5C124.8 275.1 130.5 270.5 133.5 269H153C152.6 270.6 153.833 273 154.5 274V301C158.1 309.4 164.333 312.167 167 312.5C171 317.7 178.667 316.333 182 315C194.5 315.5 193 320 193.5 322C194 324 198.5 326 202 325.5C204.8 325.1 210.833 329.333 213.5 331.5C236.5 327 236.5 355.5 236.5 359.5C236.5 362.7 238.833 365.833 240 367V375C240 377 242.333 379.167 243.5 380C257 379.5 269.5 378.5 271.5 383C273.5 387.5 267.5 392 269.5 395.5C271.1 398.3 277.167 402.667 280 404.5C284.4 411.7 282.833 419.833 281.5 423C281.333 426 280.7 432.4 279.5 434C278.3 435.6 279 440 279.5 442C274.7 447.6 275.833 451.667 277 453C281.4 462.6 278.5 471 276.5 474L277.5 484L279.5 484.5L307.5 485C307.833 485 308.5 484.8 308.5 484C308.5 483 312 482.5 313.5 483C315 483.5 315.5 488.5 316 489C316.4 489.4 316.5 490.5 316.5 491C317 512 318.5 513 319.5 514.5C320.5 516 323.5 515 324 514C324.5 513 333.5 508.5 339 513C344.5 517.5 333.5 537.5 334 539C334.4 540.2 334.833 541.167 335 541.5C346.6 531.1 348.5 555.167 348 568.5C338.833 573.333 320.3 583 319.5 583C318.7 583 301.167 604 292.5 614.5C290 617.667 285.2 624.3 286 625.5C286.8 626.7 297.667 622.667 303 620.5C315 629.5 311.5 629.5 312 629.5C312.5 629.5 311 638.5 314.5 637.5C318 636.5 322.5 632.5 322.5 633C322.5 633.4 325.167 638.833 326.5 641.5C330.5 641.9 346.167 657.667 353.5 665.5V666.5V671.5C343 681 348 684 352 685C356 686 364.5 674 365 673.5C365.4 673.1 365.833 667.333 366 664.5C368.5 660.833 373.6 653.5 374 653.5C374.5 653.5 378 651 382.5 650.5C387 650 400 632.5 400 631.5C400 630.5 408 616.5 408.5 616C409 615.5 409.5 614.5 413 605C416.5 595.5 426.5 598.5 427 598.5C427.4 598.5 428.833 596.833 429.5 596C427 581.5 429.5 581 431.5 576.5C433.5 572 430 571.5 429.5 570.5C429 569.5 426 544.5 440 535.5C454 526.5 456.5 517.5 457.5 518C458.3 518.4 471.5 517.833 478 517.5C478.5 515.5 490 510 494.5 510C498.1 510 496.333 507.333 495 506C497 502 501.167 502.667 503 503.5C510.2 509.5 517 505.333 519.5 502.5C520.3 504.9 530.5 505.833 535.5 506C538.5 494 543.5 492 544 492C544.4 492 552.5 492.333 556.5 492.5L557 477.5C561 475 566.5 467.5 566.5 467C566.5 466.5 574.5 453 578.5 450.5C581.7 448.5 582.167 446.333 582 445.5C583 442 580 437 581 435.5C582 434 582.5 428 583 427.5C583.4 427.1 584.833 426 585.5 425.5C589.1 422.3 593.333 421.167 595 421C594.333 417.167 593.1 408.3 593.5 403.5C594 397.5 602 392.5 602 392C602 391.5 603.5 383 601.5 379C599.5 375 600.5 377 599.5 370.5C598.5 364 601.5 362.5 602 362C602.5 361.5 601 359 601.5 358.5C602 358 602.5 356 603.5 355C604.5 354 605 351 603.5 346.5C602.3 342.9 604.333 340.333 605.5 339.5C604.5 330 607 330.5 608 330.5C609 330.5 609.5 332.5 614 332C618.5 331.5 632 316 631.5 315.5C631 315 636 306.5 637.5 305.5C638.7 304.7 640 300.167 640.5 298C642.1 296 647.167 296.5 649.5 297C653 288 666 277 669 273.5C671.4 270.7 673.667 267.333 674.5 266C684.5 242 683.333 235.667 681.5 235.5C681.1 226.7 678.667 221.167 677.5 219.5C679.9 211.5 677.5 206.167 676 204.5C672.5 190.5 651.5 193 647 192C643.4 191.2 636.833 185.667 634 183C628 173 601 153 593.5 151C586 149 575 151.5 571.5 151C568 150.5 552 146.5 550.5 144.5C549 142.5 529.5 139.5 526 143.5C522.5 147.5 508.5 154.5 514.5 143.5C519.3 134.7 514.167 131.833 511 131.5C510.5 121 488 118 485.5 116.5C483 115 470.5 113.5 463 111C457 109 445.5 122.5 440.5 129.5C440.1 128.3 431.667 130.333 427.5 131.5C425.9 129.1 421.5 129.167 419.5 129.5C412.7 133.9 409.333 130 408.5 127.5C409.7 126.7 409.667 122.167 409.5 120C402.3 115.2 402.167 104.667 403 100C408 90.5 420 86.5 421.5 86C422.7 85.6 423.667 80.1667 424 77.5C426.8 67.5 414.5 66.6667 408 67.5C410.4 58.7 405 46.5 402 41.5C406.4 27.9 397.167 22.1667 392 21C393.5 23 395 28.1 389 32.5C381.5 38 382 38 380.5 44.5C379.3 49.7 370.333 54.6667 366 56.5C364.667 55.8333 360.2 55.2 353 58C345.8 60.8 341.333 59.8333 340 59C337.667 56 332.3 50.7 329.5 53.5C326.7 56.3 322 56.6667 320 56.5C319.167 54.8333 316.4 52.2 312 55C306.5 58.5 313 61 315 63C316.6 64.6 308.667 65.3333 304.5 65.5C278.5 54.5 266.5 78.5 264.5 76.5C262.9 74.9 253.167 69.8333 248.5 67.5L248 56L244.5 53C243.7 43 246.5 38.8333 248 38C260 26 249.667 18.3333 243 16C248 13 244 0.999988 238 1.99999C232 2.99999 231.5 3.49999 229.5 12C227.9 18.8 210.5 22.1667 202 23L192 32.5C187.6 20.9 181.5 25 179 28.5L176.5 22H159C159.4 22 169.5 30 174.5 34C165.7 41.6 171.167 45.8333 175 47C172.667 49.6667 168.3 55.1 169.5 55.5C170.7 55.9 178.667 56.3333 182.5 56.5C180.9 56.9 172.833 66 169 70.5C161.4 66.5 152.833 79.1666 149.5 86L146.5 77L134 83C128.8 74.6 123.5 73.5 121.5 74L121 62.5L113 52L100 61L71.5 62C71.9 64 69.3333 69.1666 68 71.5C69.6 78.7 76.3333 76.8333 79.5 75C87.5 81 84.1667 83.5 81.5 84C69.1 81.6 65.3333 83 65 84C64.1667 88.6666 63 98.1 65 98.5C67.5 99 76.5 104 79.5 108.5C81.9 112.1 81.1667 140.667 80.5 154.5L77.5 158.5V165.5C75.9 168.3 70.8333 169.333 68.5 169.5C64.5 172.3 59.8333 169 58 167L16 186V197C15.2 197.4 13 201.167 12 203C13.2 210.2 5.5 214.667 1.5 216L1 231C1 235 6.52462 250.7 14.5 256.5C20 260.5 16.6667 264.5 13.5 266C30.7 264.8 34.6667 272.167 34.5 276H48.5Z" stroke="black" stroke-width="2"/>
</svg>
