<svg width="99" height="139" viewBox="0 0 99 139" fill="none" xmlns="http://www.w3.org/2000/svg">
<path d="M21.5 1L1.5 27.5C4.3 28.7 8.33333 34.3333 10 37V49.5C13.2 53.5 15.3333 67.1667 16 73.5C19.6667 73.1667 27.6 73.6 30 78C33 83.5 30 90.5 29.5 93C29 95.5 14.5 96.5 10.5 107.5C6.5343 118.406 13.8722 123.905 15.9473 125.461L16 125.5C17.6 126.7 16.6667 132 16 134.5C18 140 24.5 136 24.5 135.5C24.5 135.1 27.8333 135.333 29.5 135.5C30.3 134.7 32.8333 136.5 34 137.5C35.6 135.9 42.6667 135.167 46 135C53.6 123.4 63.1667 117.833 67 116.5L97.5 72.5C93.9 72.1 45.3333 24.6667 21.5 1Z" stroke="black"/>
</svg>
