<svg width="61" height="114" viewBox="0 0 61 114" fill="none" xmlns="http://www.w3.org/2000/svg">
<path d="M13.5 107.5C15.5 108.7 15.6667 112 15.5 113.5H8.5L7.5 103C8 103 9.2 102.3 10 99.5C11 96 10 84.5 7.5 82C5.5 80 9 73.8333 11 71C9.40001 69.4 10.3333 65.3333 11 63.5C13.1667 64.5 17.8 65.9 19 63.5C20.2 61.1 15.5 55.5 13 53C15.4 47 14 41.1667 13 39C13 32 4.49999 30.5 1.49999 27C-0.900007 24.2 1.83333 18.5 3.49999 16C8.69999 15.2 12 11.3333 13 9.5C17.4 0.700001 21.5 0.5 23 1.5C23.3333 2.33333 23.8 4.8 23 8C22.2 11.2 26.6667 11.6667 29 11.5C31.5 -0.999997 33 1.5 34 2.5L40.5 9C39.7 8.2 44.5 6 47 5C48.3333 6 52.4 9.6 58 16C63.6 22.4 57 48.3333 53 60.5C49 66.5 40.8 78.4 40 78C39 77.5 36 72 35.5 73C35 74 27.5 76.5 26.5 76C25.5 75.5 22.5 68.5 21.5 71C20.5 73.5 22.5 74.5 22.5 78C22.5 80.8 18.5 82.5 16.5 83C13.7 86.2 15.3333 89 16.5 90C21.5 99.5 13.5 101 14 101.5C14.5 102 11 106 13.5 107.5Z" stroke="black"/>
</svg>
