<svg width="133" height="102" viewBox="0 0 133 102" fill="none" xmlns="http://www.w3.org/2000/svg">
<path d="M132 43.5C132 45.5 77.6667 82.3333 50.5 100.5L4 72C4.8 71.2 2.33333 67.3333 1 65.5C-0.5 59 2.5 38 12.5 32.5C20.5 28.1 26.8333 19.6667 29 16C33.8333 16.1667 44.2 16.4 47 16C49.8 15.6 50.8333 14.8333 51 14.5C55 9 67 9 68.5 7C69.7 5.4 68 4 67 3.49999C68.2 -0.500006 73.8333 1.16666 76.5 2.49999C80.1 7.29999 87.3333 3.83333 90.5 1.49999C92.9 3.09999 102.5 4.16666 107 4.49999C115.333 16.6667 132 41.5 132 43.5Z" stroke="black"/>
</svg>
