<svg width="80" height="163" viewBox="0 0 80 163" fill="none" xmlns="http://www.w3.org/2000/svg">
<path d="M2 92.5C-0.8 94.9 6.5 100.5 10.5 103C11.5 105.667 13.1 111 11.5 111C9.5 111 6.5 120.5 7.5 120.5C13 127.5 8 128 11.5 132.5C15 137 17 137.5 17 138.5V148C17 149 15 151 13.5 152C12 153 22 157 23.5 157C24.7 157 25 154.667 25 153.5L27 157C26.8333 158.833 27.2 162.4 30 162C32.8 161.6 32.5 159.167 32 158C32.5 157.333 33.6 155.5 34 153.5C34.5 151 31.5 148 35 144.5C37.8 141.7 43.8333 144.333 46.5 146C48.9 142.4 51.1667 142.833 52 143.5C53.1667 144.833 56.1 147.6 58.5 148C61.5 148.5 65.5 140.5 61.5 132.5C58.3 126.1 58.8333 119.167 59.5 116.5C64.3 110.5 69.5 96.6667 71.5 90.5C73.9 88.9 74.1667 83.1667 74 80.5L76.5 76.5V66C82.5 61.6 75.6667 50.1667 71.5 45C80.7 32.6 67.6667 10.5 60 1H42.5L33.5 3L17 4C6.5 13 13 28 13 29C13 30 12.5 32.5 13 34C13.4 35.2 10.5 44.5 9 49C7.16667 49 3.5 49.8 3.5 53V64.5C-0.5 78.5 4.5 83 5.5 84.5C6.5 86 9 83 10.5 86C12 89 10.5 95 9 95C7.5 95 5.5 89.5 2 92.5Z" stroke="black"/>
</svg>
