<svg width="115" height="73" viewBox="0 0 115 73" fill="none" xmlns="http://www.w3.org/2000/svg">
<path d="M2.5 54.5H5.5C6.5 61.5 14 68.5 14.5 70.5C15 72.5 39.5 71.5 40.5 70.5C41.5 69.5 62 69 63 67.5C64 66 81.5 59.5 83.5 60C85.1 60.4 92.8333 56.5 96.5 54.5C97.5 47.5 100.5 44.5 106 35.5C110.4 28.3 112.833 19.8333 113.5 16.5C110.5 16.6667 104 16.9 102 16.5C100 16.1 94.1667 12.3333 91.5 10.5H86H77V8L63 6.5H53C52 6.5 47 1 47 1.5C47 1.9 45 3.33333 44 4C38 29.5 15.5 26 15.5 27C15.5 28 3.5 37.5 3.5 38C3.5 38.4 2.83333 41.1667 2.5 42.5C0.0999992 47.7 1.5 52.6667 2.5 54.5Z" stroke="black"/>
</svg>
