<svg width="24" height="56" viewBox="0 0 24 56" fill="none" xmlns="http://www.w3.org/2000/svg">
<path d="M2 39.5C1 47.5 5.5 55.5 6 55.5C12 50 18.5 48.5 20 46.5C21.2 44.9 18.8333 39.1667 17.5 36.5C21.9 31.3 20 24 18.5 21C28 10 18 13 15.5 12.5C13.5 12.1 13.3333 11 13.5 10.5C17.1 7.3 15 2.83333 13.5 1H5C4.83333 4.16667 4.5 10.6 4.5 11C4.5 11.5 4 15 1.5 17.5C-0.500005 19.5 1.33333 21.3333 2.5 22C2.83333 22.6667 3.2 24.2 2 25C0.500004 26 0.999997 29 1.5 32C2 35 3 31.5 2 39.5Z" stroke="black"/>
</svg>
