<svg width="114" height="128" viewBox="0 0 114 128" fill="none" xmlns="http://www.w3.org/2000/svg">
<path d="M83 52.5C74.6 37.7 68.5 14 66.5 4C62.9 6.4 58.6667 3 57 1C51 5 27.1667 15 16 19.5V31C10 37 12.5 38 11 42.5C9.8 46.1 4.5 49 2 50C1.66667 53.8333 1 61.6 1 62C2 79 16.5 90.5 18 92.5C19.2 94.1 17.1667 97.1667 16 98.5C19.3333 98.6667 26.5 99.2 28.5 100C31 101 34.5 106.5 34.5 107.5C34.5 108.5 46 108 47 107.5C47.8 107.1 58.6667 97 64 92C62.1667 96 58.5 106.7 58.5 117.5C58.5 128.3 66.5 128 70.5 126.5C71.3 123.3 75.8333 122.5 78 122.5C81.5 124.5 102.5 127 101.5 124C100.5 121 105 119 105.5 119C106 119 112 119 112.5 118.5C112.9 118.1 112.667 117.333 112.5 117C113.5 114.5 104.5 94 105.5 92C106.5 90 93.5 71 83 52.5Z" stroke="black"/>
</svg>
