<svg width="209" height="106" viewBox="0 0 209 106" fill="none" xmlns="http://www.w3.org/2000/svg">
<path d="M52.5 27C48.1 29 16 29.5 0.5 29.5C0.5 86 21.5 105.5 21.5 105C21.5 104.6 38.8333 93.8333 47.5 88.5C52.7 91.7 58.6667 88.5 61 86.5C69.5 85.6667 86.4 83.7 86 82.5C85.6 81.3 90.1667 77.6667 92.5 76C96 76.5 118 73.5 121.5 73.5C125 73.5 136.5 65.5 137 65C137.4 64.6 145.5 65.1667 149.5 65.5C158.7 63.5 173 57.3333 179 54.5C185 54.9 200.167 49.3333 207 46.5C208.6 44.9 207.667 32.1667 207 26C204.2 22.8 202.833 16.3333 202.5 13.5L200 10C194 -2.49999 191.5 2.00001 190.5 2.00001C189.5 2.00001 180.5 6.00001 177.5 4.50001C174.5 3.00001 161 13.5 153.5 17C146 20.5 133 16 126.5 13.5C121.3 11.5 117 12.6667 115.5 13.5C109 5.00001 58 24.5 52.5 27Z" stroke="black"/>
</svg>
