<svg width="51" height="31" viewBox="0 0 51 31" fill="none" xmlns="http://www.w3.org/2000/svg">
<path d="M1.5 29C3.1 31 5.5 28.1667 6.5 26.5C7 27.5 8.9 29.5 12.5 29.5C16.1 29.5 18 26.5 18.5 25C19.3333 24.8333 21.3 24.5 22.5 24.5C23.7 24.5 24.3333 26.5 24.5 27.5C25.5 26.5 33.5 28.5 34 27.5C34.5 26.5 42 25 39.5 24.5C37.5 24.1 30.6667 19.6667 27.5 17.5C28.8333 17.6667 31.6 18 32 18C32.4 18 32.8333 16.6667 33 16C37 15 49.5 16.5 50 14C50.4 12 43.1667 9.5 39.5 8.5C38.5 9.5 36.4 11.4 36 11C35.6 10.6 36.1667 7.5 36.5 6C34.6667 4.33333 30.8 1.1 30 1.5C29 2 23 8 23.5 8.5C24 9 30 7.5 31.5 8.5C33 9.5 32 10.5 31.5 11.5C31.1 12.3 25.6667 15.5 23 17C21 16 14 20 12.5 21C11.3 21.8 5.66666 21.3333 3 21C1.83333 22.8333 -0.100004 27 1.5 29Z" stroke="black"/>
</svg>
