<svg width="33" height="85" viewBox="0 0 33 85" fill="none" xmlns="http://www.w3.org/2000/svg">
<path d="M21 11.5C21 3.9 23.6667 1 25 0.5C27 0.5 27.5 1.83333 27.5 2.5V17L29 22C29 21.3333 29.5 21.6 31.5 28C34 36 26.5 50 26.5 50.5V54C26.5 55 22 57 22.5 59.5C22.9 61.5 21.6667 65 21 66.5C19.8333 69.3333 17.2 75.5 16 77.5C14.5 80 8.5 85.5 4 83.5C-0.500004 81.5 1.5 75 2.5 75C3.5 75 12 61 11.5 57C11.1 53.8 13.3333 47.3333 14.5 44.5C13.3 43.3 15 38 16 35.5C16.4 27.1 19.5 16 21 11.5Z" stroke="black"/>
</svg>
