<svg width="173" height="316" viewBox="0 0 173 316" fill="none" xmlns="http://www.w3.org/2000/svg">
<path d="M60 304.5C61.2 310.1 59.5 313.5 58.5 314.5C55.3333 311.167 48 304 44 302C39 299.5 38 293 37 292C36.2 291.2 31.3333 294.667 29 296.5C26 297 28 291.5 27.5 289C27.1 287 20.6667 281.5 17.5 279C13.1 280.6 5 283.333 1.49999 284.5C0.499993 280.5 34 245 34 244C34 243.2 53.3333 234 63 229.5C64.5 207.5 59 200.5 56.5 198.5C54 196.5 52.5 199.5 50.5 200C48.5 200.5 50 196.5 53 189C56 181.5 56 178 55 174.5C54 171 54 171.5 48 170C43.2 168.8 38 172.167 36 174C32.5 174.5 33 170 32.5 169C32.1 168.2 32 156.333 32 150.5C28.5 143.5 31 146 29 143C27 140 26 142.5 23.5 142C21.5 141.6 21 143.167 21 144H18C12.5 123.5 24 110.5 26 108C27.6 106 34.3333 96.1667 37.5 91.5C48.5 61 43 46 43 45.5C43 45.1 35.6667 38.3333 32 35L34 33.5C22.8 22.7 22 19 23 18.5C49 17.7 68.8333 6.83333 75.5 1.5C76.5 5 83.5 16.5 83.5 17C81.9 26.2 87.5 29.5 90.5 30C107 27.5 106 35.5 106.5 36C107 36.5 101.5 37 100 36C98.5 35 79.5 35 83.5 41.5C86.7 46.7 95.8333 45.3333 100 44C101.6 39.6 120.667 56.1667 130 65C130.4 69.4 131.833 69.5 132.5 69C137.3 66.6 138.833 67.3333 139 68C140.6 80 146.333 83.3333 149 83.5C158.5 79.5 163 81.5 164.5 83.5C165.7 85.1 165 91.1667 164.5 94C173 104.5 170.5 109 169.5 109C168.5 109 168.5 106.5 164.5 104.5C161.3 102.9 160.167 105.167 160 106.5C174.5 120.5 173 128.5 168.5 148.5C164 168.5 147 174 132 176C117 178 115.5 181 114.5 183C113.5 185 124 200.5 126 204C128 207.5 126 226.5 126 228.5C126 230.5 130 229.5 131 232.5C131.8 234.9 128.667 240.833 127 243.5C128.2 246.3 130.167 254.667 131 258.5C128.2 259.7 123.5 268.667 121.5 273C120.5 268.5 113.5 266 106.5 268.5C106.5 268.9 105.5 270.333 105 271C103.167 273 99.3 276.9 98.5 276.5C97.5 276 97.5 275 97 274C96.6 273.2 92.8333 273.333 91 273.5C90 276.5 70 281.5 68 281.5C66.4 281.5 63 278.5 61.5 277H59.5C59.5 272.5 51.5 281.5 47 288C43.4 293.2 49.8333 297.833 53.5 299.5C63.5 293.5 62 295.5 63 297C63.8 298.2 61.3333 302.5 60 304.5Z" stroke="black"/>
</svg>
