<svg width="196" height="86" viewBox="0 0 196 86" fill="none" xmlns="http://www.w3.org/2000/svg">
<path d="M31.5 27C27.1 27 15 20.6667 9.5 17.5C7.00001 17.5 7.5 20 7 21.5C6.5 23 15.5 31 18.5 32C21.5 33 24.5 33 25.5 33C30.5 35.5 29 37 28 38C27 39 26 39 11 38C-0.999996 37.2 0.66667 42.3333 3 45C16.2 44.2 22.8333 46.6667 24.5 48C29.7 45.6 40 55.6667 44.5 61C44 62 43.3 64.7 44.5 67.5C45.7 70.3 55.3333 80 60 84.5C73.2 87.7 81.5 81.8333 84 78.5C86.4 80.1 87.3333 80.5 87.5 80.5C102.3 72.5 113 70.8333 116.5 71C118.5 71.1667 123 71.4 125 71C127 70.6 127.833 69.1667 128 68.5C132 68.3333 140.6 68.1 143 68.5C146 69 153.5 62.5 154.5 64C155.5 65.5 169 65.5 174.5 66.5C180 67.5 192 47 194 45C196 43 192.5 34.5 193 31C193.5 27.5 189.5 29.5 188 23.5C186.5 17.5 184 17.5 184 16C184 14.5 175 2.5 171.5 1.5C168.7 0.699999 167 2.83333 166.5 4C155.7 5.2 149.667 10.1667 148 12.5C145.2 14.1 141.5 14.5 140 14.5C137.5 18 124 20 122.5 20C121 20 118 26 116.5 24.5C115 23 110.5 24.5 109 24.5C107.5 24.5 109.5 21.5 107 21.5C104.5 21.5 103.5 17.5 102 16C100.5 14.5 100 15.5 96.5 17.5C93 19.5 98.5 21.5 98.5 24.5C98.5 26.9 97.1667 26.5 96.5 26C93.5 25 86.2 22.7 81 21.5C75.8 20.3 68.5 24 65.5 26C59.5 25 37 27 31.5 27Z" stroke="black"/>
</svg>
