<svg width="153" height="147" viewBox="0 0 153 147" fill="none" xmlns="http://www.w3.org/2000/svg">
<path d="M16 97.5C19.2 92.7 17.3333 60.8333 16 45.5C18 49.3333 22.5 57.3 24.5 58.5C27 60 51 58.5 51.5 58C52 57.5 73.5 55.5 73.5 55C73.5 54.5 89.5 48 92.5 48C95.5 48 108.5 42 107.5 41.5C106.5 41 111 30 115.5 25.5C119.1 21.9 123 9.66667 124.5 4H125C127.4 4.8 134.667 2.66667 138 1.5C160 13.9 151.5 31 144.5 38C147.3 38.8 149 40.6667 149.5 41.5C149.833 45 150.3 54.5 149.5 64.5C148.7 74.5 135.833 84.3333 129.5 88C124.3 100.8 98.6667 113.667 86.5 118.5V125.5C83.8333 125.333 78.5 125.3 78.5 126.5C78.5 127.7 68.1667 140.333 63 146.5H44L39.5 138.5H27L22.5 132.5V126.5C21.8333 125.5 20.5 123 20.5 121C20.5 118.5 19.5 115.5 17.5 116.5C15.5 117.5 18 129 15 131.5C12 134 11 131 10.5 129C10 127 16 124.5 7 119.5C-0.2 115.5 0.666666 111.833 2 110.5H7C9 110.5 8.83333 108.5 8.5 107.5C5.3 99.9 7.16667 97.6667 8.5 97.5C9.66667 99.5 12.8 102.3 16 97.5Z" stroke="black"/>
</svg>
